# xmcd
#
# Track frame offsets:
#	150
#	17306
#	35746
#	49948
#	68640
#	95823
#	116268
#	132656
#	161122
#	181781
#
# Disc length: 2637 seconds
#
# Revision: 1
# Processed by: cddbd v1.5.2PL0 Copyright (c) Steve Scherf et al.
# Submitted via: audiograbber 1.83.01
#
DISCID=840a4b0a
DTITLE=Dynamite Daze - Tango With The Devil
DYEAR=2013
DGENRE=Blues
TTITLE0=A Picture Of Downtown Kingston
TTITLE1=15 Miles To Mexico
TTITLE2=A Satisfied Mind
TTITLE3=Betram Reloaded
TTITLE4=Jesus Redemptor
TTITLE5=Rain
TTITLE6=Mescalita
TTITLE7=Red In Heaven
TTITLE8=Ragbag
TTITLE9=Tango With The Devil
EXTD=
EXTT0=
EXTT1=
EXTT2=
EXTT3=
EXTT4=
EXTT5=
EXTT6=
EXTT7=
EXTT8=
EXTT9=
PLAYORDER=
